<svg xmlns="http://www.w3.org/2000/svg" width="266.534" height="442.789" viewBox="0 0 266.534 442.789">
  <g id="Group_17" data-name="Group 17" transform="translate(-559.151 -245.072)">
    <g id="Group_12" data-name="Group 12" transform="translate(559.151 245.072)">
      <g id="Group_11" data-name="Group 11">
        <path id="Path_8" data-name="Path 8" d="M618.4,687.861H559.151V245.072H618.4v2.49H561.641v437.81H618.4Z" transform="translate(-559.151 -245.072)" fill="#7100ff"/>
      </g>
    </g>
    <g id="Group_16" data-name="Group 16" transform="translate(766.44 245.072)">
      <g id="Group_13" data-name="Group 13">
        <path id="Path_9" data-name="Path 9" d="M759.7,261.3h-2.49V247.562H700.461v-2.49H759.7Z" transform="translate(-700.461 -245.072)" fill="#7100ff"/>
      </g>
      <g id="Group_14" data-name="Group 14" transform="translate(0 426.562)">
        <path id="Path_10" data-name="Path 10" d="M759.7,552.088H700.461V549.6h56.754V535.861h2.49Z" transform="translate(-700.461 -535.861)" fill="#7100ff"/>
      </g>
      <g id="Group_15" data-name="Group 15" transform="translate(56.755 45.589)">
        <path id="Path_11" data-name="Path 11" d="M741.642,629.823h-2.491V619.718h2.491Zm0-20.21h-2.491V599.508h2.491Zm0-20.21h-2.491V579.3h2.491Zm0-20.211h-2.491v-10.1h2.491Zm0-20.21h-2.491V538.878h2.491Zm0-20.21h-2.491v-10.1h2.491Zm0-20.21h-2.491V498.459h2.491Zm0-20.21h-2.491V478.249h2.491Zm0-20.21h-2.491V458.039h2.491Zm0-20.211h-2.491v-10.1h2.491Zm0-20.21h-2.491V417.619h2.491Zm0-20.21h-2.491v-10.1h2.491Zm0-20.21h-2.491V377.2h2.491Zm0-20.211h-2.491v-10.1h2.491Zm0-20.208h-2.491V336.78h2.491Zm0-20.211h-2.491v-10.1h2.491Zm0-20.21h-2.491v-10.1h2.491Zm0-20.21h-2.491V276.15h2.491Z" transform="translate(-739.151 -276.15)" fill="#7100ff"/>
      </g>
    </g>
  </g>
</svg>
