<?xml version="1.0" encoding="utf-8"?>
<!-- Generator: Adobe Illustrator 23.0.3, SVG Export Plug-In . SVG Version: 6.00 Build 0)  -->
<svg version="1.1" id="Layer_1" xmlns="http://www.w3.org/2000/svg" xmlns:xlink="http://www.w3.org/1999/xlink" x="0px" y="0px"
	 viewBox="0 0 193.1 317.7" style="enable-background:new 0 0 193.1 317.7;" xml:space="preserve">
<style type="text/css">
	.st0{fill:#7023F9;}
</style>
<path class="st0" d="M169.9,14.1L184,0h-1.4l-13.4,13.4L155.8,0h-1.4l14.1,14.1l-23.4,23.4l-23.4-23.4L135.8,0h-1.4l-13.4,13.4
	L107.5,0h-1.4l14.1,14.1L96.8,37.6L73.4,14.1L87.5,0h-1.4L72.7,13.4L59.2,0h-1.4l14.1,14.1L48.5,37.6L25.1,14.2L39.2,0h-1.4
	L24.4,13.4L10.9,0H9.5l14.2,14.2L0.2,37.6l-0.4-0.4V38v0.6v0.8L0.2,39l23.4,23.4L0.2,85.9l-0.4-0.4v0.8v0.6v0.8l0.4-0.4l23.4,23.4
	L0.2,134.1l-0.4-0.4v0.8v0.7v0.8l0.4-0.4L23.6,159L0.2,182.4l-0.4-0.4v0.7v0.7v0.7l0.4-0.4l23.4,23.4L0.2,230.7l-0.3-0.3v0.7v0.7
	v0.7l0.3-0.3l23.4,23.4L0.1,279l-0.3-0.3v0.6v0.8v0.6l0.3-0.3l23.4,23.4L9.6,317.7h1.4l13.2-13.2l13.2,13.2h1.4L25,303.8l23.4-23.4
	l23.4,23.4l-13.9,13.9h1.4l13.2-13.2l13.2,13.2h1.4l-13.9-13.9l23.4-23.4l23.4,23.4l-14,14h1.4l13.2-13.2l13.2,13.2h1.4l-14-14
	l23.4-23.4l23.4,23.4l-14,14h1.4l13.3-13.3l13.3,13.3h1.4l-14-14l23.3-23.3v-0.3V279v-0.3l-23.3-23.3l23.3-23.3v-0.3v-1.1v-0.3
	l-23.3-23.3l23.3-23.3v-0.4v-1v-0.4l-23.2-23.2l23.2-23.2v-0.4v-1v-0.4l-23.2-23.2l23.2-23.2V87v-1v-0.5l-23.2-23.2l23.2-23.2v-0.5
	v-0.9v-0.5L169.9,14.1z M168.5,62.4L145,85.8l-23.4-23.4L145.1,39L168.5,62.4z M96,183.1l-23.4,23.4l-23.4-23.4l23.4-23.4L96,183.1z
	 M49.2,134.8l23.4-23.4L96,134.8l-23.4,23.4L49.2,134.8z M73.3,159l23.4-23.4l23.4,23.4l-23.4,23.4L73.3,159z M120.9,159.7
	l23.4,23.4l-23.4,23.4l-23.4-23.4L120.9,159.7z M120.9,158.2l-23.4-23.4l23.4-23.4l23.4,23.4L120.9,158.2z M97.5,86.5l23.4-23.4
	l23.4,23.4L120.9,110L97.5,86.5z M120.2,110.7l-23.4,23.4l-23.4-23.4l23.4-23.4L120.2,110.7z M72.6,110L49.2,86.6l23.4-23.4
	l23.4,23.4L72.6,110z M71.9,110.7l-23.4,23.4L25,110.7l23.4-23.4L71.9,110.7z M71.9,159l-23.4,23.4L25,159l23.4-23.4L71.9,159z
	 M71.9,207.2l-23.4,23.4L25,207.3l23.4-23.4L71.9,207.2z M72.6,207.9L96,231.4l-23.4,23.4l-23.4-23.4L72.6,207.9z M73.3,207.2
	l23.4-23.4l23.4,23.4l-23.4,23.4L73.3,207.2z M120.8,207.9l23.4,23.4l-23.4,23.4l-23.4-23.4L120.8,207.9z M121.6,207.2l23.4-23.4
	l23.4,23.4L145,230.6L121.6,207.2z M121.6,158.9l23.4-23.4l23.4,23.4L145,182.4L121.6,158.9z M121.6,110.7L145,87.2l23.4,23.4
	L145,134.1L121.6,110.7z M120.9,14.8l23.4,23.4l-23.4,23.4L97.5,38.3L120.9,14.8z M120.2,62.4L96.8,85.8L73.3,62.4L96.8,39
	L120.2,62.4z M72.7,14.8l23.4,23.4L72.6,61.7L49.2,38.3L72.7,14.8z M71.9,62.4L48.5,85.9L25.1,62.4L48.5,39L71.9,62.4z M0.9,38.3
	l23.4-23.4l23.4,23.4L24.4,61.7L0.9,38.3z M0.9,86.6l23.4-23.4l23.4,23.4L24.3,110L0.9,86.6z M0.9,134.9l23.4-23.4l23.4,23.4
	l-23.4,23.4L0.9,134.9z M0.9,183.1l23.4-23.4l23.4,23.4l-23.4,23.4L0.9,183.1z M0.9,231.4L24.3,208l23.4,23.4l-23.4,23.4L0.9,231.4z
	 M24.3,303.1L0.8,279.7l23.4-23.4l23.4,23.4L24.3,303.1z M25,255.5l23.4-23.4l23.4,23.4L48.4,279L25,255.5z M72.5,303.1l-23.4-23.4
	l23.4-23.4L96,279.6L72.5,303.1z M73.3,255.5l23.4-23.4l23.4,23.4l-23.4,23.4L73.3,255.5z M120.8,303.1l-23.4-23.4l23.4-23.4
	l23.4,23.4L120.8,303.1z M121.5,255.5l23.4-23.4l23.4,23.4L145,278.9L121.5,255.5z M192.5,279.6L169.1,303l-23.4-23.4l23.4-23.4
	L192.5,279.6z M192.5,231.3l-23.4,23.4l-23.4-23.4l23.4-23.4L192.5,231.3z M192.6,183l-23.4,23.4l-23.4-23.4l23.4-23.4L192.6,183z
	 M192.6,134.8l-23.4,23.4l-23.4-23.4l23.4-23.4L192.6,134.8z M192.6,86.5l-23.4,23.4l-23.4-23.4l23.4-23.4L192.6,86.5z M169.2,61.7
	l-23.4-23.4l23.4-23.4l23.4,23.4L169.2,61.7z"/>
</svg>
