<?xml version="1.0" encoding="utf-8"?>
<!-- Generator: Adobe Illustrator 23.0.3, SVG Export Plug-In . SVG Version: 6.00 Build 0)  -->
<svg version="1.1" id="Layer_1" xmlns="http://www.w3.org/2000/svg" xmlns:xlink="http://www.w3.org/1999/xlink" x="0px" y="0px"
	 viewBox="0 0 200 65" style="enable-background:new 0 0 200 65;" xml:space="preserve">
<style type="text/css">
	.st0{fill:#B9B9B9;}
</style>
<g>
	<g>
		<path class="st0" d="M34.7,64l-0.1-0.6l0,0l-2.7-23.1L31.7,41l-5.5,19.3L34.7,64L34.7,64z M16.1,55.7l6.4,6.7l0.2-0.6l0,0L29,39.4
			L16.1,55.7L16.1,55.7z M46.5,60.8l-0.3-0.5l0,0L34.8,39.9l2.4,20.6L46.5,60.8L46.5,60.8z M47.5,56.6l8.7-3.3l-0.5-0.4l0,0
			L37.4,38.4L47.5,56.6L47.5,56.6L47.5,56.6L47.5,56.6z M8.5,47.7l3.3,8.7l0.4-0.5l0,0l0,0l0,0l14.4-18.3L8.5,47.7L8.5,47.7z
			 M55.5,49l6.7-6.4l-0.6-0.2l0,0l0,0l0,0l-22.4-6.3L55.5,49L55.5,49z M4.3,46.7l0.5-0.3l0,0l0,0l0,0L25.2,35l-8.9,1L4.5,37.4
			L4.3,46.7L4.3,46.7z M60,38.9l3.8-8.5l-0.6,0.1l0,0l0,0l0,0L40,33.2l7.9,2.2L60,38.9L60,38.9z M1,34.9l0.6-0.1l0,0l0,0l0,0
			l23.1-2.7l-1.2-0.3L4.8,26.4L1,34.9L1,34.9z M60,18.9L39.7,30.3l20.6-2.4l0.2-9.3L60,18.9L60,18.9L60,18.9L60,18.9L60,18.9z
			 M25.6,29.2L16.5,22l-7.2-5.7l0,0l0,0l-6.7,6.4l0.6,0.2l0,0l0,0l0,0L25.6,29.2L25.6,29.2z M52.6,9.4L38.2,27.7L51.9,20l4.4-2.5
			L53,8.9L52.6,9.4L52.6,9.4L52.6,9.4L52.6,9.4L52.6,9.4z M27.4,26.8l-6.3-11.3l-3.8-6.8L8.6,12l0.5,0.4l0,0L27.4,26.8L27.4,26.8z
			 M42.2,3.4l-6.3,22.5L48.7,9.5l-6.4-6.7L42.2,3.4L42.2,3.4L42.2,3.4z M30,25.4l-0.8-6.6l-1.6-14l-9.3-0.2l0.3,0.6l0,0L30,25.4
			L30,25.4z M30.2,1.8L30.2,1.8L33,25l4.8-16.9L38.6,5l0,0l0,0l-8.5-3.8L30.2,1.8L30.2,1.8z"/>
	</g>
	<g>
		<path class="st0" d="M77.5,28.6c0-6.8,0-8-0.1-9.4c-0.1-1.5-0.4-2.2-1.9-2.5c-0.3-0.1-1.1-0.1-1.5-0.1c-0.2,0-0.3-0.1-0.3-0.3
			c0-0.3,0.2-0.3,0.7-0.3c2,0,4.6,0.1,4.9,0.1c1,0,3.5-0.1,5.5-0.1c5.4,0,7.4,1.8,8.1,2.5c1,0.9,2.2,2.9,2.2,5.2
			C95,29.8,90.5,34,84.4,34c-0.2,0-0.7,0-0.9,0c-0.2,0-0.5-0.1-0.5-0.3c0-0.3,0.3-0.4,1.2-0.4c4.2,0,7.5-3.1,7.5-7.1
			c0-1.4-0.1-4.3-2.4-6.7c-2.3-2.3-4.9-2.2-5.9-2.2c-0.7,0-1.5,0.1-1.9,0.3c-0.3,0.1-0.3,0.4-0.3,0.8v17.8c0,4.2,0,7.6,0.2,9.4
			c0.1,1.3,0.4,2.2,1.7,2.4c0.6,0.1,1.6,0.2,2,0.2c0.3,0,0.3,0.1,0.3,0.3s-0.2,0.3-0.7,0.3c-2.4,0-5.1-0.1-5.3-0.1
			c-0.1,0-2.9,0.1-4.2,0.1c-0.5,0-0.7-0.1-0.7-0.3c0-0.1,0.1-0.3,0.3-0.3c0.4,0,0.9-0.1,1.3-0.2c0.9-0.2,1.1-1.1,1.3-2.4
			c0.2-1.8,0.2-5.3,0.2-9.4L77.5,28.6L77.5,28.6z"/>
		<path class="st0" d="M102.3,39.7c0,3,0,5.5,0.1,6.8c0.1,0.9,0.2,1.5,1.2,1.7c0.5,0.1,1.2,0.1,1.5,0.1c0.2,0,0.3,0.1,0.3,0.3
			c0,0.1-0.1,0.3-0.5,0.3c-1.8,0-3.9-0.1-4.1-0.1s-2.2,0.1-3.2,0.1c-0.3,0-0.5-0.1-0.5-0.3c0-0.1,0.1-0.3,0.3-0.3
			c0.3,0,0.7-0.1,1-0.1c0.6-0.1,0.7-0.7,0.9-1.7c0.1-1.3,0.2-3.8,0.2-6.8v-5.6c0-4.9,0-5.8-0.1-6.8c-0.1-1.1-0.3-1.6-1-1.7
			c-0.4-0.1-0.8-0.1-1-0.1c-0.1,0-0.3-0.1-0.3-0.3c0-0.2,0.1-0.3,0.5-0.3c1.1,0,3.1,0.1,3.3,0.1c0.1,0,2.3-0.1,3.3-0.1
			c0.4,0,0.5,0.1,0.5,0.3c0,0.1-0.1,0.3-0.3,0.3c-0.2,0-0.4,0-0.8,0.1c-0.9,0.2-1.1,0.6-1.1,1.7c0,1,0,1.9,0,6.8v5.6H102.3z"/>
		<path class="st0" d="M160,24.6c7.3,0,12.9,4.5,12.9,11.8c0,7-5.2,12.9-13.1,12.9c-8.9,0-12.7-6.7-12.7-12.4
			C147.1,31.8,151,24.6,160,24.6z M160.7,47.9c2.9,0,8.8-1.6,8.8-10.7c0-7.6-4.6-11.5-9.7-11.5c-5.4,0-9.4,3.4-9.4,10.3
			C150.4,43.3,154.8,47.9,160.7,47.9z"/>
		<path class="st0" d="M177.6,44.5c0.1,2.6,0.4,3.4,1.3,3.6c0.6,0.1,1.3,0.2,1.6,0.2c0.1,0,0.3,0.1,0.3,0.3s-0.2,0.3-0.6,0.3
			c-1.9,0-3.1-0.1-3.4-0.1c-0.3,0-1.7,0.1-3.1,0.1c-0.3,0-0.5,0-0.5-0.3c0-0.1,0.1-0.3,0.3-0.3c0.3,0,0.9,0,1.3-0.2
			c0.8-0.2,0.9-1.1,0.9-3.9v-18c0-1.3,0.2-1.6,0.4-1.6c0.4,0,0.9,0.6,1.3,1c0.5,0.5,5.3,5.6,10.3,10.7c3.2,3.3,6.7,7.1,7.7,8.1
			L195,28.6c0-2-0.2-2.7-1.2-2.9c-0.6-0.1-1.3-0.1-1.6-0.1c-0.2,0-0.3-0.2-0.3-0.3c0-0.2,0.3-0.2,0.6-0.2c1.5,0,3,0.1,3.4,0.1
			s1.4-0.1,2.8-0.1c0.3,0,0.6,0,0.6,0.2c0,0.1-0.1,0.3-0.4,0.3c-0.1,0-0.4,0-0.8,0.1c-1.1,0.2-1.1,0.9-1.1,2.7l-0.1,18.5
			c0,2.1,0,2.3-0.3,2.3s-0.7-0.3-2.5-1.9c-0.3-0.3-5-4.9-8.5-8.5c-3.8-4-7.4-7.8-8.4-8.9L177.6,44.5z"/>
		<g>
			<path class="st0" d="M123,24.9c-1.6-0.3-3.4-0.4-4.7-0.4c-5,0-8,1.5-9.9,3.4c-2.9,2.8-3.7,6.5-3.7,8.6c0,3,0.8,6.6,4,9.3
				c2.6,2.2,5.9,3.4,10.7,3.4c2.1,0,4.6-0.2,5.9-0.7c0.6-0.2,0.6-0.3,0.8-0.9c0.3-1.1,0.8-3.8,0.8-4s-0.1-0.4-0.3-0.4
				c-0.2,0-0.3,0.1-0.3,0.4c-0.1,0.6-0.6,1.9-1.3,2.6c-1.3,1.3-2.9,1.5-5.4,1.5c-7,0-11.7-5.4-11.7-11.4c0-3.2,0.5-6,2.9-8.2
				c1.1-1.1,3.1-2.2,7.3-2.2c2.9,0,5.3,0.8,6.4,1.7c0.2,0.1,0.3,0.3,0.4,0.4c0.2-0.8,0.5-2.1,0.6-2.7C124.7,25.2,123.9,25,123,24.9z
				"/>
		</g>
		<path class="st0" d="M139.1,39.5c0,3,0,5.5,0.1,6.8c0.1,0.9,0.3,1.5,1.3,1.7c0.4,0.1,1.2,0.1,1.5,0.1c0.2,0,0.3,0.1,0.3,0.3
			c0,0.1-0.1,0.3-0.5,0.3c-1.8,0-3.9-0.1-4-0.1s-2.4,0.1-3.4,0.1c-0.4,0-0.5-0.1-0.5-0.3c0-0.1,0.1-0.2,0.3-0.2c0.3,0,0.7-0.1,1-0.1
			c0.7-0.1,0.9-0.8,1-1.7c0.1-1.3,0.1-3.8,0.1-6.8V26.3l-4.7,0.1c-2,0-2.8,0.3-3.3,1c-0.4,0.6-0.4,0.8-0.5,1
			c-0.1,0.3-0.2,0.3-0.3,0.3c-0.1,0-0.2-0.1-0.2-0.3c0-0.3,0.7-3.1,0.7-3.4c0.1-0.2,0.2-0.6,0.3-0.6c0.2,0,0.6,0.3,1.4,0.4
			c0.9,0.1,2.2,0.1,2.6,0.1h12.3c1.1,0,1.8-0.1,2.3-0.1c0.5-0.1,0.8-0.1,0.9-0.1c0.1,0,0.1,0.2,0.1,0.4c0,1-0.1,3.2-0.1,3.6
			c0,0.3-0.1,0.4-0.3,0.4c-0.1,0-0.2-0.1-0.3-0.6v-0.3c-0.1-1-0.8-1.7-3.9-1.7l-4.1-0.1v13.1H139.1z"/>
	</g>
</g>
</svg>
